# File generated by ImageToStl.com - Free Image and 3D model conversion tools

mtllib ramp.mtl

o obj1
v 2.71854401 1 0.00915712
v -1 3.02116299 2.00915718
v -1 1 2.00915718
v -1 1 0.00915712
v 2.71854401 3.02116299 0.00915718
v -1 -1 2.00915718
v -1 -1 0.00915712
v -1 -3.02116299 2.00915718
v 2.71854401 -3.02116299 0.00915718
v -1 -3.02116299 0.00915718
v -1 3.02116299 0.00915718
v 2.71854401 -1 0.00915712
vn 0.96971 0 -0.24425
vn -0.4265 0.55574 0.71362
vn -0.51303 0 0.85837
vn -0.70712 0 -0.70709
vn 0.81561 0.54092 -0.20539
vn -0.51303 0 0.85837
vn -0.70712 -0 -0.70709
vn -0.42652 -0.55572 0.71362
vn 0.81559 -0.54092 -0.20548
vn -0.57735 -0.57735 -0.57734
vn -0.57737 0.57734 -0.57734
vn 0.96971 -0 -0.24425
vt 0.375 0.5
vt 0.875 0.5
vt 0.125 0.5
vt 0.625 0
vt 0.375 0.25
vt 0.375 0
vt 0.125 0.75
vt 0.375 0.75
vt 0.625 1
vt 0.375 1
vt 0.625 0.25
vt 0.875 0.75
usemtl mat0
f 1/1/1 2/2/2 3/2/3
f 4/3/4 5/1/5 1/1/1
f 6/4/6 4/5/4 7/6/7
f 1/1/1 7/7/7 4/3/4
f 7/6/7 8/4/8 6/4/6
f 9/8/9 8/9/8 10/10/10
f 11/5/11 2/11/2 5/1/5
f 6/12/6 9/8/9 12/8/12
f 12/8/12 10/7/10 7/7/7
f 3/11/3 11/5/11 4/5/4
f 3/2/3 12/8/12 1/1/1
f 1/1/1 5/1/5 2/2/2
f 4/3/4 11/3/11 5/1/5
f 6/4/6 3/11/3 4/5/4
f 1/1/1 12/8/12 7/7/7
f 7/6/7 10/6/10 8/4/8
f 6/12/6 8/12/8 9/8/9
f 12/8/12 9/8/9 10/7/10
f 3/11/3 2/11/2 11/5/11
f 3/2/3 6/12/6 12/8/12
# Vertices: 12, normals: 12, texture coordinates: 12, faces: 20

